<mxfile host="65bd71144e">
    <diagram id="4oUEukHDsDfAAwGAMUiu" name="Page-1">
        <mxGraphModel dx="1160" dy="1317" grid="0" gridSize="10" guides="1" tooltips="1" connect="1" arrows="1" fold="1" page="0" pageScale="1" pageWidth="1500" pageHeight="1500" background="#292929" math="0" shadow="0">
            <root>
                <mxCell id="0"/>
                <mxCell id="1" parent="0"/>
                <mxCell id="168" value="&lt;h2&gt;&lt;span style=&quot;white-space: pre&quot;&gt;&#9;&lt;/span&gt;Filled out as the opperator scans vendor pallets&lt;/h2&gt;" style="shape=note;size=20;whiteSpace=wrap;html=1;fillColor=#2E000A;align=center;verticalAlign=bottom;strokeColor=#6F0000;fontColor=#F0F0F0;" parent="1" vertex="1">
                    <mxGeometry x="653" y="714" width="908" height="411" as="geometry"/>
                </mxCell>
                <mxCell id="167" value="&lt;h2&gt;Filled out by hostPOWRKORDService&lt;/h2&gt;" style="shape=note;size=20;whiteSpace=wrap;html=1;backgroundOutline=0;fillColor=#2E000A;fontColor=#ffffff;strokeColor=#6F0000;align=center;verticalAlign=top;" parent="1" vertex="1">
                    <mxGeometry x="365" y="259" width="1211" height="429" as="geometry"/>
                </mxCell>
                <mxCell id="28" style="edgeStyle=none;html=1;exitX=0;exitY=0.5;exitDx=0;exitDy=0;startArrow=ERoneToMany;startFill=0;endArrow=ERone;endFill=0;endSize=18;startSize=18;entryX=1;entryY=0.5;entryDx=0;entryDy=0;" parent="1" source="88" target="49" edge="1">
                    <mxGeometry relative="1" as="geometry">
                        <Array as="points"/>
                        <mxPoint x="526" y="560" as="targetPoint"/>
                    </mxGeometry>
                </mxCell>
                <mxCell id="29" value="includes all the stock that arrives with the appointment (as long as there is only 1 recieving order/ po)" style="shape=note;size=20;whiteSpace=wrap;html=1;shadow=1;fillColor=#242424;opacity=50;" parent="1" vertex="1">
                    <mxGeometry x="1147" y="302" width="372" height="48" as="geometry"/>
                </mxCell>
                <mxCell id="48" value="Appointment : wmsreceivingappointmentinfo" style="shape=table;startSize=30;container=1;collapsible=1;childLayout=tableLayout;fixedRows=1;rowLines=0;fontStyle=1;align=center;resizeLast=1;shadow=1;fillColor=#242424;opacity=50;" parent="1" vertex="1">
                    <mxGeometry x="388" y="451" width="272" height="155" as="geometry"/>
                </mxCell>
                <mxCell id="49" value="" style="shape=partialRectangle;collapsible=0;dropTarget=0;pointerEvents=0;fillColor=#242424;top=0;left=0;bottom=1;right=0;points=[[0,0.5],[1,0.5]];portConstraint=eastwest;shadow=1;opacity=50;" parent="48" vertex="1">
                    <mxGeometry y="30" width="272" height="30" as="geometry"/>
                </mxCell>
                <mxCell id="50" value="PK" style="shape=partialRectangle;connectable=0;fillColor=#242424;top=0;left=0;bottom=0;right=0;fontStyle=1;overflow=hidden;shadow=1;opacity=50;" parent="49" vertex="1">
                    <mxGeometry width="30" height="30" as="geometry">
                        <mxRectangle width="30" height="30" as="alternateBounds"/>
                    </mxGeometry>
                </mxCell>
                <mxCell id="51" value="ID" style="shape=partialRectangle;connectable=0;fillColor=#242424;top=0;left=0;bottom=0;right=0;align=left;spacingLeft=6;fontStyle=5;overflow=hidden;shadow=1;opacity=50;" parent="49" vertex="1">
                    <mxGeometry x="30" width="242" height="30" as="geometry">
                        <mxRectangle width="242" height="30" as="alternateBounds"/>
                    </mxGeometry>
                </mxCell>
                <mxCell id="169" style="shape=partialRectangle;collapsible=0;dropTarget=0;pointerEvents=0;fillColor=#242424;top=0;left=0;bottom=1;right=0;points=[[0,0.5],[1,0.5]];portConstraint=eastwest;shadow=1;opacity=50;" parent="48" vertex="1">
                    <mxGeometry y="60" width="272" height="30" as="geometry"/>
                </mxCell>
                <mxCell id="170" value="AK" style="shape=partialRectangle;connectable=0;fillColor=#242424;top=0;left=0;bottom=0;right=0;fontStyle=1;overflow=hidden;shadow=1;opacity=50;" parent="169" vertex="1">
                    <mxGeometry width="30" height="30" as="geometry">
                        <mxRectangle width="30" height="30" as="alternateBounds"/>
                    </mxGeometry>
                </mxCell>
                <mxCell id="171" value="purchase_order_app_id" style="shape=partialRectangle;connectable=0;fillColor=#242424;top=0;left=0;bottom=0;right=0;align=left;spacingLeft=6;fontStyle=5;overflow=hidden;shadow=1;opacity=50;" parent="169" vertex="1">
                    <mxGeometry x="30" width="242" height="30" as="geometry">
                        <mxRectangle width="242" height="30" as="alternateBounds"/>
                    </mxGeometry>
                </mxCell>
                <mxCell id="52" value="" style="shape=partialRectangle;collapsible=0;dropTarget=0;pointerEvents=0;fillColor=#242424;top=0;left=0;bottom=0;right=0;points=[[0,0.5],[1,0.5]];portConstraint=eastwest;shadow=1;opacity=50;" parent="48" vertex="1">
                    <mxGeometry y="90" width="272" height="30" as="geometry"/>
                </mxCell>
                <mxCell id="53" value="" style="shape=partialRectangle;connectable=0;fillColor=#242424;top=0;left=0;bottom=0;right=0;editable=1;overflow=hidden;shadow=1;opacity=50;" parent="52" vertex="1">
                    <mxGeometry width="30" height="30" as="geometry">
                        <mxRectangle width="30" height="30" as="alternateBounds"/>
                    </mxGeometry>
                </mxCell>
                <mxCell id="54" value="receiving order count" style="shape=partialRectangle;connectable=0;fillColor=#242424;top=0;left=0;bottom=0;right=0;align=left;spacingLeft=6;overflow=hidden;shadow=1;opacity=50;" parent="52" vertex="1">
                    <mxGeometry x="30" width="242" height="30" as="geometry">
                        <mxRectangle width="242" height="30" as="alternateBounds"/>
                    </mxGeometry>
                </mxCell>
                <mxCell id="55" value="" style="shape=partialRectangle;collapsible=0;dropTarget=0;pointerEvents=0;fillColor=#242424;top=0;left=0;bottom=0;right=0;points=[[0,0.5],[1,0.5]];portConstraint=eastwest;shadow=1;opacity=50;" parent="48" vertex="1">
                    <mxGeometry y="120" width="272" height="30" as="geometry"/>
                </mxCell>
                <mxCell id="56" value="" style="shape=partialRectangle;connectable=0;fillColor=#242424;top=0;left=0;bottom=0;right=0;editable=1;overflow=hidden;shadow=1;opacity=50;" parent="55" vertex="1">
                    <mxGeometry width="30" height="30" as="geometry">
                        <mxRectangle width="30" height="30" as="alternateBounds"/>
                    </mxGeometry>
                </mxCell>
                <mxCell id="57" value="assighned door" style="shape=partialRectangle;connectable=0;fillColor=#242424;top=0;left=0;bottom=0;right=0;align=left;spacingLeft=6;overflow=hidden;shadow=1;opacity=50;" parent="55" vertex="1">
                    <mxGeometry x="30" width="242" height="30" as="geometry">
                        <mxRectangle width="242" height="30" as="alternateBounds"/>
                    </mxGeometry>
                </mxCell>
                <mxCell id="62" value="Receiving Order (Purchase Order):  wmsorder" style="shape=table;startSize=30;container=1;collapsible=1;childLayout=tableLayout;fixedRows=1;rowLines=0;fontStyle=1;align=center;resizeLast=1;shadow=1;fillColor=#242424;opacity=50;" parent="1" vertex="1">
                    <mxGeometry x="766" y="391" width="302" height="275" as="geometry"/>
                </mxCell>
                <mxCell id="63" value="" style="shape=partialRectangle;collapsible=0;dropTarget=0;pointerEvents=0;fillColor=#242424;top=0;left=0;bottom=1;right=0;points=[[0,0.5],[1,0.5]];portConstraint=eastwest;shadow=1;opacity=50;" parent="62" vertex="1">
                    <mxGeometry y="30" width="302" height="30" as="geometry"/>
                </mxCell>
                <mxCell id="64" value="PK" style="shape=partialRectangle;connectable=0;fillColor=#242424;top=0;left=0;bottom=0;right=0;fontStyle=1;overflow=hidden;shadow=1;opacity=50;" parent="63" vertex="1">
                    <mxGeometry width="30" height="30" as="geometry">
                        <mxRectangle width="30" height="30" as="alternateBounds"/>
                    </mxGeometry>
                </mxCell>
                <mxCell id="65" value="ID" style="shape=partialRectangle;connectable=0;fillColor=#242424;top=0;left=0;bottom=0;right=0;align=left;spacingLeft=6;fontStyle=5;overflow=hidden;shadow=1;opacity=50;" parent="63" vertex="1">
                    <mxGeometry x="30" width="272" height="30" as="geometry">
                        <mxRectangle width="272" height="30" as="alternateBounds"/>
                    </mxGeometry>
                </mxCell>
                <mxCell id="172" style="shape=partialRectangle;collapsible=0;dropTarget=0;pointerEvents=0;fillColor=#242424;top=0;left=0;bottom=1;right=0;points=[[0,0.5],[1,0.5]];portConstraint=eastwest;shadow=1;opacity=50;" parent="62" vertex="1">
                    <mxGeometry y="60" width="302" height="30" as="geometry"/>
                </mxCell>
                <mxCell id="173" value="AK" style="shape=partialRectangle;connectable=0;fillColor=#242424;top=0;left=0;bottom=0;right=0;fontStyle=1;overflow=hidden;shadow=1;opacity=50;" parent="172" vertex="1">
                    <mxGeometry width="30" height="30" as="geometry">
                        <mxRectangle width="30" height="30" as="alternateBounds"/>
                    </mxGeometry>
                </mxCell>
                <mxCell id="174" value="Purchase_Order" style="shape=partialRectangle;connectable=0;fillColor=#242424;top=0;left=0;bottom=0;right=0;align=left;spacingLeft=6;fontStyle=5;overflow=hidden;shadow=1;opacity=50;" parent="172" vertex="1">
                    <mxGeometry x="30" width="272" height="30" as="geometry">
                        <mxRectangle width="272" height="30" as="alternateBounds"/>
                    </mxGeometry>
                </mxCell>
                <mxCell id="88" style="shape=partialRectangle;collapsible=0;dropTarget=0;pointerEvents=0;fillColor=#242424;top=0;left=0;bottom=1;right=0;points=[[0,0.5],[1,0.5]];portConstraint=eastwest;shadow=1;opacity=50;" parent="62" vertex="1">
                    <mxGeometry y="90" width="302" height="30" as="geometry"/>
                </mxCell>
                <mxCell id="89" value="FK" style="shape=partialRectangle;connectable=0;fillColor=#242424;top=0;left=0;bottom=0;right=0;fontStyle=1;overflow=hidden;shadow=1;opacity=50;" parent="88" vertex="1">
                    <mxGeometry width="30" height="30" as="geometry">
                        <mxRectangle width="30" height="30" as="alternateBounds"/>
                    </mxGeometry>
                </mxCell>
                <mxCell id="90" value="AppInfoID" style="shape=partialRectangle;connectable=0;fillColor=#242424;top=0;left=0;bottom=0;right=0;align=left;spacingLeft=6;fontStyle=5;overflow=hidden;shadow=1;opacity=50;" parent="88" vertex="1">
                    <mxGeometry x="30" width="272" height="30" as="geometry">
                        <mxRectangle width="272" height="30" as="alternateBounds"/>
                    </mxGeometry>
                </mxCell>
                <mxCell id="66" value="" style="shape=partialRectangle;collapsible=0;dropTarget=0;pointerEvents=0;fillColor=#242424;top=0;left=0;bottom=0;right=0;points=[[0,0.5],[1,0.5]];portConstraint=eastwest;shadow=1;opacity=50;" parent="62" vertex="1">
                    <mxGeometry y="120" width="302" height="30" as="geometry"/>
                </mxCell>
                <mxCell id="67" value="" style="shape=partialRectangle;connectable=0;fillColor=#242424;top=0;left=0;bottom=0;right=0;editable=1;overflow=hidden;shadow=1;opacity=50;" parent="66" vertex="1">
                    <mxGeometry width="30" height="30" as="geometry">
                        <mxRectangle width="30" height="30" as="alternateBounds"/>
                    </mxGeometry>
                </mxCell>
                <mxCell id="68" value="app. Scheduled Time" style="shape=partialRectangle;connectable=0;fillColor=#242424;top=0;left=0;bottom=0;right=0;align=left;spacingLeft=6;overflow=hidden;shadow=1;opacity=50;" parent="66" vertex="1">
                    <mxGeometry x="30" width="272" height="30" as="geometry">
                        <mxRectangle width="272" height="30" as="alternateBounds"/>
                    </mxGeometry>
                </mxCell>
                <mxCell id="69" value="" style="shape=partialRectangle;collapsible=0;dropTarget=0;pointerEvents=0;fillColor=#242424;top=0;left=0;bottom=0;right=0;points=[[0,0.5],[1,0.5]];portConstraint=eastwest;shadow=1;opacity=50;" parent="62" vertex="1">
                    <mxGeometry y="150" width="302" height="30" as="geometry"/>
                </mxCell>
                <mxCell id="70" value="" style="shape=partialRectangle;connectable=0;fillColor=#242424;top=0;left=0;bottom=0;right=0;editable=1;overflow=hidden;shadow=1;opacity=50;" parent="69" vertex="1">
                    <mxGeometry width="30" height="30" as="geometry">
                        <mxRectangle width="30" height="30" as="alternateBounds"/>
                    </mxGeometry>
                </mxCell>
                <mxCell id="71" value="WMS Door asgn " style="shape=partialRectangle;connectable=0;fillColor=#242424;top=0;left=0;bottom=0;right=0;align=left;spacingLeft=6;overflow=hidden;shadow=1;opacity=50;" parent="69" vertex="1">
                    <mxGeometry x="30" width="272" height="30" as="geometry">
                        <mxRectangle width="272" height="30" as="alternateBounds"/>
                    </mxGeometry>
                </mxCell>
                <mxCell id="184" style="shape=partialRectangle;collapsible=0;dropTarget=0;pointerEvents=0;fillColor=#242424;top=0;left=0;bottom=0;right=0;points=[[0,0.5],[1,0.5]];portConstraint=eastwest;shadow=1;opacity=50;" parent="62" vertex="1">
                    <mxGeometry y="180" width="302" height="30" as="geometry"/>
                </mxCell>
                <mxCell id="185" style="shape=partialRectangle;connectable=0;fillColor=#242424;top=0;left=0;bottom=0;right=0;editable=1;overflow=hidden;shadow=1;opacity=50;" parent="184" vertex="1">
                    <mxGeometry width="30" height="30" as="geometry">
                        <mxRectangle width="30" height="30" as="alternateBounds"/>
                    </mxGeometry>
                </mxCell>
                <mxCell id="186" value="host door asgn" style="shape=partialRectangle;connectable=0;fillColor=#242424;top=0;left=0;bottom=0;right=0;align=left;spacingLeft=6;overflow=hidden;shadow=1;opacity=50;" parent="184" vertex="1">
                    <mxGeometry x="30" width="272" height="30" as="geometry">
                        <mxRectangle width="272" height="30" as="alternateBounds"/>
                    </mxGeometry>
                </mxCell>
                <mxCell id="72" value="" style="shape=partialRectangle;collapsible=0;dropTarget=0;pointerEvents=0;fillColor=#242424;top=0;left=0;bottom=0;right=0;points=[[0,0.5],[1,0.5]];portConstraint=eastwest;shadow=1;opacity=50;" parent="62" vertex="1">
                    <mxGeometry y="210" width="302" height="30" as="geometry"/>
                </mxCell>
                <mxCell id="73" value="" style="shape=partialRectangle;connectable=0;fillColor=#242424;top=0;left=0;bottom=0;right=0;editable=1;overflow=hidden;shadow=1;opacity=50;" parent="72" vertex="1">
                    <mxGeometry width="30" height="30" as="geometry">
                        <mxRectangle width="30" height="30" as="alternateBounds"/>
                    </mxGeometry>
                </mxCell>
                <mxCell id="74" value="status" style="shape=partialRectangle;connectable=0;fillColor=#242424;top=0;left=0;bottom=0;right=0;align=left;spacingLeft=6;overflow=hidden;shadow=1;opacity=50;" parent="72" vertex="1">
                    <mxGeometry x="30" width="272" height="30" as="geometry">
                        <mxRectangle width="272" height="30" as="alternateBounds"/>
                    </mxGeometry>
                </mxCell>
                <mxCell id="181" style="shape=partialRectangle;collapsible=0;dropTarget=0;pointerEvents=0;fillColor=#242424;top=0;left=0;bottom=0;right=0;points=[[0,0.5],[1,0.5]];portConstraint=eastwest;shadow=1;opacity=50;" parent="62" vertex="1">
                    <mxGeometry y="240" width="302" height="30" as="geometry"/>
                </mxCell>
                <mxCell id="182" style="shape=partialRectangle;connectable=0;fillColor=#242424;top=0;left=0;bottom=0;right=0;editable=1;overflow=hidden;shadow=1;opacity=50;" parent="181" vertex="1">
                    <mxGeometry width="30" height="30" as="geometry">
                        <mxRectangle width="30" height="30" as="alternateBounds"/>
                    </mxGeometry>
                </mxCell>
                <mxCell id="183" value="created/due at" style="shape=partialRectangle;connectable=0;fillColor=#242424;top=0;left=0;bottom=0;right=0;align=left;spacingLeft=6;overflow=hidden;shadow=1;opacity=50;" parent="181" vertex="1">
                    <mxGeometry x="30" width="272" height="30" as="geometry">
                        <mxRectangle width="272" height="30" as="alternateBounds"/>
                    </mxGeometry>
                </mxCell>
                <mxCell id="75" value="Receiving Order Line (vendor pallet on trailer) : wmsorderline" style="shape=table;startSize=30;container=1;collapsible=1;childLayout=tableLayout;fixedRows=1;rowLines=0;fontStyle=1;align=center;resizeLast=1;shadow=1;fillColor=#242424;opacity=50;" parent="1" vertex="1">
                    <mxGeometry x="1150" y="363" width="411" height="305" as="geometry"/>
                </mxCell>
                <mxCell id="76" value="" style="shape=partialRectangle;collapsible=0;dropTarget=0;pointerEvents=0;fillColor=#242424;top=0;left=0;bottom=1;right=0;points=[[0,0.5],[1,0.5]];portConstraint=eastwest;shadow=1;opacity=50;" parent="75" vertex="1">
                    <mxGeometry y="30" width="411" height="30" as="geometry"/>
                </mxCell>
                <mxCell id="77" value="PK" style="shape=partialRectangle;connectable=0;fillColor=#242424;top=0;left=0;bottom=0;right=0;fontStyle=1;overflow=hidden;shadow=1;opacity=50;" parent="76" vertex="1">
                    <mxGeometry width="30" height="30" as="geometry">
                        <mxRectangle width="30" height="30" as="alternateBounds"/>
                    </mxGeometry>
                </mxCell>
                <mxCell id="78" value="ID" style="shape=partialRectangle;connectable=0;fillColor=#242424;top=0;left=0;bottom=0;right=0;align=left;spacingLeft=6;fontStyle=5;overflow=hidden;shadow=1;opacity=50;" parent="76" vertex="1">
                    <mxGeometry x="30" width="381" height="30" as="geometry">
                        <mxRectangle width="381" height="30" as="alternateBounds"/>
                    </mxGeometry>
                </mxCell>
                <mxCell id="92" style="shape=partialRectangle;collapsible=0;dropTarget=0;pointerEvents=0;fillColor=#242424;top=0;left=0;bottom=1;right=0;points=[[0,0.5],[1,0.5]];portConstraint=eastwest;shadow=1;opacity=50;" parent="75" vertex="1">
                    <mxGeometry y="60" width="411" height="30" as="geometry"/>
                </mxCell>
                <mxCell id="93" value="FK" style="shape=partialRectangle;connectable=0;fillColor=#242424;top=0;left=0;bottom=0;right=0;fontStyle=1;overflow=hidden;shadow=1;opacity=50;" parent="92" vertex="1">
                    <mxGeometry width="30" height="30" as="geometry">
                        <mxRectangle width="30" height="30" as="alternateBounds"/>
                    </mxGeometry>
                </mxCell>
                <mxCell id="94" value="wmsorder_id" style="shape=partialRectangle;connectable=0;fillColor=#242424;top=0;left=0;bottom=0;right=0;align=left;spacingLeft=6;fontStyle=5;overflow=hidden;shadow=1;opacity=50;" parent="92" vertex="1">
                    <mxGeometry x="30" width="381" height="30" as="geometry">
                        <mxRectangle width="381" height="30" as="alternateBounds"/>
                    </mxGeometry>
                </mxCell>
                <mxCell id="163" style="shape=partialRectangle;collapsible=0;dropTarget=0;pointerEvents=0;fillColor=#242424;top=0;left=0;bottom=1;right=0;points=[[0,0.5],[1,0.5]];portConstraint=eastwest;shadow=1;opacity=50;" parent="75" vertex="1">
                    <mxGeometry y="90" width="411" height="30" as="geometry"/>
                </mxCell>
                <mxCell id="164" value="FK" style="shape=partialRectangle;connectable=0;fillColor=#242424;top=0;left=0;bottom=0;right=0;fontStyle=1;overflow=hidden;shadow=1;opacity=50;" parent="163" vertex="1">
                    <mxGeometry width="30" height="30" as="geometry">
                        <mxRectangle width="30" height="30" as="alternateBounds"/>
                    </mxGeometry>
                </mxCell>
                <mxCell id="165" value="material_ID" style="shape=partialRectangle;connectable=0;fillColor=#242424;top=0;left=0;bottom=0;right=0;align=left;spacingLeft=6;fontStyle=5;overflow=hidden;shadow=1;opacity=50;" parent="163" vertex="1">
                    <mxGeometry x="30" width="381" height="30" as="geometry">
                        <mxRectangle width="381" height="30" as="alternateBounds"/>
                    </mxGeometry>
                </mxCell>
                <mxCell id="79" value="" style="shape=partialRectangle;collapsible=0;dropTarget=0;pointerEvents=0;fillColor=#242424;top=0;left=0;bottom=0;right=0;points=[[0,0.5],[1,0.5]];portConstraint=eastwest;shadow=1;opacity=50;" parent="75" vertex="1">
                    <mxGeometry y="120" width="411" height="30" as="geometry"/>
                </mxCell>
                <mxCell id="80" value="" style="shape=partialRectangle;connectable=0;fillColor=#242424;top=0;left=0;bottom=0;right=0;editable=1;overflow=hidden;shadow=1;opacity=50;" parent="79" vertex="1">
                    <mxGeometry width="30" height="30" as="geometry">
                        <mxRectangle width="30" height="30" as="alternateBounds"/>
                    </mxGeometry>
                </mxCell>
                <mxCell id="81" value="line number" style="shape=partialRectangle;connectable=0;fillColor=#242424;top=0;left=0;bottom=0;right=0;align=left;spacingLeft=6;overflow=hidden;shadow=1;opacity=50;" parent="79" vertex="1">
                    <mxGeometry x="30" width="381" height="30" as="geometry">
                        <mxRectangle width="381" height="30" as="alternateBounds"/>
                    </mxGeometry>
                </mxCell>
                <mxCell id="82" value="" style="shape=partialRectangle;collapsible=0;dropTarget=0;pointerEvents=0;fillColor=#242424;top=0;left=0;bottom=0;right=0;points=[[0,0.5],[1,0.5]];portConstraint=eastwest;shadow=1;opacity=50;" parent="75" vertex="1">
                    <mxGeometry y="150" width="411" height="30" as="geometry"/>
                </mxCell>
                <mxCell id="83" value="" style="shape=partialRectangle;connectable=0;fillColor=#242424;top=0;left=0;bottom=0;right=0;editable=1;overflow=hidden;shadow=1;opacity=50;" parent="82" vertex="1">
                    <mxGeometry width="30" height="30" as="geometry">
                        <mxRectangle width="30" height="30" as="alternateBounds"/>
                    </mxGeometry>
                </mxCell>
                <mxCell id="84" value="item description" style="shape=partialRectangle;connectable=0;fillColor=#242424;top=0;left=0;bottom=0;right=0;align=left;spacingLeft=6;overflow=hidden;shadow=1;opacity=50;" parent="82" vertex="1">
                    <mxGeometry x="30" width="381" height="30" as="geometry">
                        <mxRectangle width="381" height="30" as="alternateBounds"/>
                    </mxGeometry>
                </mxCell>
                <mxCell id="85" value="" style="shape=partialRectangle;collapsible=0;dropTarget=0;pointerEvents=0;fillColor=#242424;top=0;left=0;bottom=0;right=0;points=[[0,0.5],[1,0.5]];portConstraint=eastwest;shadow=1;opacity=50;" parent="75" vertex="1">
                    <mxGeometry y="180" width="411" height="30" as="geometry"/>
                </mxCell>
                <mxCell id="86" value="" style="shape=partialRectangle;connectable=0;fillColor=#242424;top=0;left=0;bottom=0;right=0;editable=1;overflow=hidden;shadow=1;opacity=50;" parent="85" vertex="1">
                    <mxGeometry width="30" height="30" as="geometry">
                        <mxRectangle width="30" height="30" as="alternateBounds"/>
                    </mxGeometry>
                </mxCell>
                <mxCell id="87" value="status" style="shape=partialRectangle;connectable=0;fillColor=#242424;top=0;left=0;bottom=0;right=0;align=left;spacingLeft=6;overflow=hidden;shadow=1;opacity=50;" parent="85" vertex="1">
                    <mxGeometry x="30" width="381" height="30" as="geometry">
                        <mxRectangle width="381" height="30" as="alternateBounds"/>
                    </mxGeometry>
                </mxCell>
                <mxCell id="193" style="shape=partialRectangle;collapsible=0;dropTarget=0;pointerEvents=0;fillColor=#242424;top=0;left=0;bottom=0;right=0;points=[[0,0.5],[1,0.5]];portConstraint=eastwest;shadow=1;opacity=50;" parent="75" vertex="1">
                    <mxGeometry y="210" width="411" height="30" as="geometry"/>
                </mxCell>
                <mxCell id="194" style="shape=partialRectangle;connectable=0;fillColor=#242424;top=0;left=0;bottom=0;right=0;editable=1;overflow=hidden;shadow=1;opacity=50;" parent="193" vertex="1">
                    <mxGeometry width="30" height="30" as="geometry">
                        <mxRectangle width="30" height="30" as="alternateBounds"/>
                    </mxGeometry>
                </mxCell>
                <mxCell id="195" value="eaches" style="shape=partialRectangle;connectable=0;fillColor=#242424;top=0;left=0;bottom=0;right=0;align=left;spacingLeft=6;overflow=hidden;shadow=1;opacity=50;" parent="193" vertex="1">
                    <mxGeometry x="30" width="381" height="30" as="geometry">
                        <mxRectangle width="381" height="30" as="alternateBounds"/>
                    </mxGeometry>
                </mxCell>
                <mxCell id="190" style="shape=partialRectangle;collapsible=0;dropTarget=0;pointerEvents=0;fillColor=#242424;top=0;left=0;bottom=0;right=0;points=[[0,0.5],[1,0.5]];portConstraint=eastwest;shadow=1;opacity=50;" parent="75" vertex="1">
                    <mxGeometry y="240" width="411" height="30" as="geometry"/>
                </mxCell>
                <mxCell id="191" style="shape=partialRectangle;connectable=0;fillColor=#242424;top=0;left=0;bottom=0;right=0;editable=1;overflow=hidden;shadow=1;opacity=50;" parent="190" vertex="1">
                    <mxGeometry width="30" height="30" as="geometry">
                        <mxRectangle width="30" height="30" as="alternateBounds"/>
                    </mxGeometry>
                </mxCell>
                <mxCell id="192" value="shipping units" style="shape=partialRectangle;connectable=0;fillColor=#242424;top=0;left=0;bottom=0;right=0;align=left;spacingLeft=6;overflow=hidden;shadow=1;opacity=50;" parent="190" vertex="1">
                    <mxGeometry x="30" width="381" height="30" as="geometry">
                        <mxRectangle width="381" height="30" as="alternateBounds"/>
                    </mxGeometry>
                </mxCell>
                <mxCell id="187" style="shape=partialRectangle;collapsible=0;dropTarget=0;pointerEvents=0;fillColor=#242424;top=0;left=0;bottom=0;right=0;points=[[0,0.5],[1,0.5]];portConstraint=eastwest;shadow=1;opacity=50;" parent="75" vertex="1">
                    <mxGeometry y="270" width="411" height="30" as="geometry"/>
                </mxCell>
                <mxCell id="188" style="shape=partialRectangle;connectable=0;fillColor=#242424;top=0;left=0;bottom=0;right=0;editable=1;overflow=hidden;shadow=1;opacity=50;" parent="187" vertex="1">
                    <mxGeometry width="30" height="30" as="geometry">
                        <mxRectangle width="30" height="30" as="alternateBounds"/>
                    </mxGeometry>
                </mxCell>
                <mxCell id="189" value="many other stock numbers" style="shape=partialRectangle;connectable=0;fillColor=#242424;top=0;left=0;bottom=0;right=0;align=left;spacingLeft=6;overflow=hidden;shadow=1;opacity=50;" parent="187" vertex="1">
                    <mxGeometry x="30" width="381" height="30" as="geometry">
                        <mxRectangle width="381" height="30" as="alternateBounds"/>
                    </mxGeometry>
                </mxCell>
                <mxCell id="95" style="edgeStyle=none;html=1;exitX=0;exitY=0.5;exitDx=0;exitDy=0;entryX=1;entryY=0.5;entryDx=0;entryDy=0;startArrow=ERoneToMany;startFill=0;endArrow=ERone;endFill=0;startSize=18;endSize=18;" parent="1" source="92" target="63" edge="1">
                    <mxGeometry relative="1" as="geometry">
                        <Array as="points"/>
                    </mxGeometry>
                </mxCell>
                <mxCell id="96" value="Consolidation Order (Pallet) : wmsorder" style="shape=table;startSize=30;container=1;collapsible=1;childLayout=tableLayout;fixedRows=1;rowLines=0;fontStyle=1;align=center;resizeLast=1;shadow=1;fillColor=#242424;opacity=50;" parent="1" vertex="1">
                    <mxGeometry x="771.5" y="794" width="299" height="275" as="geometry"/>
                </mxCell>
                <mxCell id="97" value="" style="shape=partialRectangle;collapsible=0;dropTarget=0;pointerEvents=0;fillColor=#242424;top=0;left=0;bottom=1;right=0;points=[[0,0.5],[1,0.5]];portConstraint=eastwest;shadow=1;opacity=50;" parent="96" vertex="1">
                    <mxGeometry y="30" width="299" height="30" as="geometry"/>
                </mxCell>
                <mxCell id="98" value="PK" style="shape=partialRectangle;connectable=0;fillColor=#242424;top=0;left=0;bottom=0;right=0;fontStyle=1;overflow=hidden;shadow=1;opacity=50;" parent="97" vertex="1">
                    <mxGeometry width="30" height="30" as="geometry">
                        <mxRectangle width="30" height="30" as="alternateBounds"/>
                    </mxGeometry>
                </mxCell>
                <mxCell id="99" value="ID" style="shape=partialRectangle;connectable=0;fillColor=#242424;top=0;left=0;bottom=0;right=0;align=left;spacingLeft=6;fontStyle=5;overflow=hidden;shadow=1;opacity=50;" parent="97" vertex="1">
                    <mxGeometry x="30" width="269" height="30" as="geometry">
                        <mxRectangle width="269" height="30" as="alternateBounds"/>
                    </mxGeometry>
                </mxCell>
                <mxCell id="100" value="" style="shape=partialRectangle;collapsible=0;dropTarget=0;pointerEvents=0;fillColor=#242424;top=0;left=0;bottom=0;right=0;points=[[0,0.5],[1,0.5]];portConstraint=eastwest;shadow=1;opacity=50;" parent="96" vertex="1">
                    <mxGeometry y="60" width="299" height="30" as="geometry"/>
                </mxCell>
                <mxCell id="101" value="FK" style="shape=partialRectangle;connectable=0;fillColor=#242424;top=0;left=0;bottom=0;right=0;editable=1;overflow=hidden;shadow=1;opacity=50;" parent="100" vertex="1">
                    <mxGeometry width="30" height="30" as="geometry">
                        <mxRectangle width="30" height="30" as="alternateBounds"/>
                    </mxGeometry>
                </mxCell>
                <mxCell id="102" value="WMSPARENTORDER_ID" style="shape=partialRectangle;connectable=0;fillColor=#242424;top=0;left=0;bottom=0;right=0;align=left;spacingLeft=6;overflow=hidden;shadow=1;opacity=50;" parent="100" vertex="1">
                    <mxGeometry x="30" width="269" height="30" as="geometry">
                        <mxRectangle width="269" height="30" as="alternateBounds"/>
                    </mxGeometry>
                </mxCell>
                <mxCell id="103" value="" style="shape=partialRectangle;collapsible=0;dropTarget=0;pointerEvents=0;fillColor=#242424;top=0;left=0;bottom=0;right=0;points=[[0,0.5],[1,0.5]];portConstraint=eastwest;shadow=1;opacity=50;" parent="96" vertex="1">
                    <mxGeometry y="90" width="299" height="30" as="geometry"/>
                </mxCell>
                <mxCell id="104" value="" style="shape=partialRectangle;connectable=0;fillColor=#242424;top=0;left=0;bottom=0;right=0;editable=1;overflow=hidden;shadow=1;opacity=50;" parent="103" vertex="1">
                    <mxGeometry width="30" height="30" as="geometry">
                        <mxRectangle width="30" height="30" as="alternateBounds"/>
                    </mxGeometry>
                </mxCell>
                <mxCell id="105" value="destinationarea" style="shape=partialRectangle;connectable=0;fillColor=#242424;top=0;left=0;bottom=0;right=0;align=left;spacingLeft=6;overflow=hidden;shadow=1;opacity=50;" parent="103" vertex="1">
                    <mxGeometry x="30" width="269" height="30" as="geometry">
                        <mxRectangle width="269" height="30" as="alternateBounds"/>
                    </mxGeometry>
                </mxCell>
                <mxCell id="106" value="" style="shape=partialRectangle;collapsible=0;dropTarget=0;pointerEvents=0;fillColor=#242424;top=0;left=0;bottom=0;right=0;points=[[0,0.5],[1,0.5]];portConstraint=eastwest;shadow=1;opacity=50;" parent="96" vertex="1">
                    <mxGeometry y="120" width="299" height="30" as="geometry"/>
                </mxCell>
                <mxCell id="107" value="" style="shape=partialRectangle;connectable=0;fillColor=#242424;top=0;left=0;bottom=0;right=0;editable=1;overflow=hidden;shadow=1;opacity=50;" parent="106" vertex="1">
                    <mxGeometry width="30" height="30" as="geometry">
                        <mxRectangle width="30" height="30" as="alternateBounds"/>
                    </mxGeometry>
                </mxCell>
                <mxCell id="108" value="THE REAL STATUS BOI!!!" style="shape=partialRectangle;connectable=0;fillColor=#242424;top=0;left=0;bottom=0;right=0;align=left;spacingLeft=6;overflow=hidden;shadow=1;opacity=50;" parent="106" vertex="1">
                    <mxGeometry x="30" width="269" height="30" as="geometry">
                        <mxRectangle width="269" height="30" as="alternateBounds"/>
                    </mxGeometry>
                </mxCell>
                <mxCell id="215" style="shape=partialRectangle;collapsible=0;dropTarget=0;pointerEvents=0;fillColor=#242424;top=0;left=0;bottom=0;right=0;points=[[0,0.5],[1,0.5]];portConstraint=eastwest;shadow=1;opacity=50;" parent="96" vertex="1">
                    <mxGeometry y="150" width="299" height="30" as="geometry"/>
                </mxCell>
                <mxCell id="216" style="shape=partialRectangle;connectable=0;fillColor=#242424;top=0;left=0;bottom=0;right=0;editable=1;overflow=hidden;shadow=1;opacity=50;" parent="215" vertex="1">
                    <mxGeometry width="30" height="30" as="geometry">
                        <mxRectangle width="30" height="30" as="alternateBounds"/>
                    </mxGeometry>
                </mxCell>
                <mxCell id="217" value="priority" style="shape=partialRectangle;connectable=0;fillColor=#242424;top=0;left=0;bottom=0;right=0;align=left;spacingLeft=6;overflow=hidden;shadow=1;opacity=50;" parent="215" vertex="1">
                    <mxGeometry x="30" width="269" height="30" as="geometry">
                        <mxRectangle width="269" height="30" as="alternateBounds"/>
                    </mxGeometry>
                </mxCell>
                <mxCell id="212" style="shape=partialRectangle;collapsible=0;dropTarget=0;pointerEvents=0;fillColor=#242424;top=0;left=0;bottom=0;right=0;points=[[0,0.5],[1,0.5]];portConstraint=eastwest;shadow=1;opacity=50;" parent="96" vertex="1">
                    <mxGeometry y="180" width="299" height="30" as="geometry"/>
                </mxCell>
                <mxCell id="213" style="shape=partialRectangle;connectable=0;fillColor=#242424;top=0;left=0;bottom=0;right=0;editable=1;overflow=hidden;shadow=1;opacity=50;" parent="212" vertex="1">
                    <mxGeometry width="30" height="30" as="geometry">
                        <mxRectangle width="30" height="30" as="alternateBounds"/>
                    </mxGeometry>
                </mxCell>
                <mxCell id="214" value="HI / TI" style="shape=partialRectangle;connectable=0;fillColor=#242424;top=0;left=0;bottom=0;right=0;align=left;spacingLeft=6;overflow=hidden;shadow=1;opacity=50;" parent="212" vertex="1">
                    <mxGeometry x="30" width="269" height="30" as="geometry">
                        <mxRectangle width="269" height="30" as="alternateBounds"/>
                    </mxGeometry>
                </mxCell>
                <mxCell id="209" style="shape=partialRectangle;collapsible=0;dropTarget=0;pointerEvents=0;fillColor=#242424;top=0;left=0;bottom=0;right=0;points=[[0,0.5],[1,0.5]];portConstraint=eastwest;shadow=1;opacity=50;" parent="96" vertex="1">
                    <mxGeometry y="210" width="299" height="30" as="geometry"/>
                </mxCell>
                <mxCell id="210" style="shape=partialRectangle;connectable=0;fillColor=#242424;top=0;left=0;bottom=0;right=0;editable=1;overflow=hidden;shadow=1;opacity=50;" parent="209" vertex="1">
                    <mxGeometry width="30" height="30" as="geometry">
                        <mxRectangle width="30" height="30" as="alternateBounds"/>
                    </mxGeometry>
                </mxCell>
                <mxCell id="211" value="unitized" style="shape=partialRectangle;connectable=0;fillColor=#242424;top=0;left=0;bottom=0;right=0;align=left;spacingLeft=6;overflow=hidden;shadow=1;opacity=50;" parent="209" vertex="1">
                    <mxGeometry x="30" width="269" height="30" as="geometry">
                        <mxRectangle width="269" height="30" as="alternateBounds"/>
                    </mxGeometry>
                </mxCell>
                <mxCell id="206" style="shape=partialRectangle;collapsible=0;dropTarget=0;pointerEvents=0;fillColor=#242424;top=0;left=0;bottom=0;right=0;points=[[0,0.5],[1,0.5]];portConstraint=eastwest;shadow=1;opacity=50;" parent="96" vertex="1">
                    <mxGeometry y="240" width="299" height="30" as="geometry"/>
                </mxCell>
                <mxCell id="207" style="shape=partialRectangle;connectable=0;fillColor=#242424;top=0;left=0;bottom=0;right=0;editable=1;overflow=hidden;shadow=1;opacity=50;" parent="206" vertex="1">
                    <mxGeometry width="30" height="30" as="geometry">
                        <mxRectangle width="30" height="30" as="alternateBounds"/>
                    </mxGeometry>
                </mxCell>
                <mxCell id="208" value="mixed" style="shape=partialRectangle;connectable=0;fillColor=#242424;top=0;left=0;bottom=0;right=0;align=left;spacingLeft=6;overflow=hidden;shadow=1;opacity=50;" parent="206" vertex="1">
                    <mxGeometry x="30" width="269" height="30" as="geometry">
                        <mxRectangle width="269" height="30" as="alternateBounds"/>
                    </mxGeometry>
                </mxCell>
                <mxCell id="124" style="edgeStyle=none;html=1;exitX=0;exitY=0.5;exitDx=0;exitDy=0;entryX=1;entryY=0.5;entryDx=0;entryDy=0;" parent="1" source="156" target="97" edge="1">
                    <mxGeometry relative="1" as="geometry"/>
                </mxCell>
                <mxCell id="196" value="" style="edgeStyle=none;html=1;startArrow=ERmany;startFill=0;endArrow=ERone;endFill=0;startSize=19;endSize=19;entryX=0;entryY=0.5;entryDx=0;entryDy=0;exitX=0;exitY=0.5;exitDx=0;exitDy=0;" parent="1" source="159" target="76" edge="1">
                    <mxGeometry relative="1" as="geometry">
                        <Array as="points">
                            <mxPoint x="1098" y="810"/>
                            <mxPoint x="1098" y="408"/>
                        </Array>
                    </mxGeometry>
                </mxCell>
                <mxCell id="110" value="Consolidation Order Line (stock on pallet)" style="shape=table;startSize=30;container=1;collapsible=1;childLayout=tableLayout;fixedRows=1;rowLines=0;fontStyle=1;align=center;resizeLast=1;shadow=1;fillColor=#242424;opacity=50;" parent="1" vertex="1">
                    <mxGeometry x="1163" y="734" width="321" height="335" as="geometry"/>
                </mxCell>
                <mxCell id="111" value="" style="shape=partialRectangle;collapsible=0;dropTarget=0;pointerEvents=0;fillColor=#242424;top=0;left=0;bottom=1;right=0;points=[[0,0.5],[1,0.5]];portConstraint=eastwest;shadow=1;opacity=50;" parent="110" vertex="1">
                    <mxGeometry y="30" width="321" height="30" as="geometry"/>
                </mxCell>
                <mxCell id="112" value="PK" style="shape=partialRectangle;connectable=0;fillColor=#242424;top=0;left=0;bottom=0;right=0;fontStyle=1;overflow=hidden;shadow=1;opacity=50;" parent="111" vertex="1">
                    <mxGeometry width="30" height="30" as="geometry">
                        <mxRectangle width="30" height="30" as="alternateBounds"/>
                    </mxGeometry>
                </mxCell>
                <mxCell id="113" value="ID" style="shape=partialRectangle;connectable=0;fillColor=#242424;top=0;left=0;bottom=0;right=0;align=left;spacingLeft=6;fontStyle=5;overflow=hidden;shadow=1;opacity=50;" parent="111" vertex="1">
                    <mxGeometry x="30" width="291" height="30" as="geometry">
                        <mxRectangle width="291" height="30" as="alternateBounds"/>
                    </mxGeometry>
                </mxCell>
                <mxCell id="159" style="shape=partialRectangle;collapsible=0;dropTarget=0;pointerEvents=0;fillColor=#242424;top=0;left=0;bottom=1;right=0;points=[[0,0.5],[1,0.5]];portConstraint=eastwest;shadow=1;opacity=50;" parent="110" vertex="1">
                    <mxGeometry y="60" width="321" height="30" as="geometry"/>
                </mxCell>
                <mxCell id="160" value="FK" style="shape=partialRectangle;connectable=0;fillColor=#242424;top=0;left=0;bottom=0;right=0;fontStyle=1;overflow=hidden;shadow=1;opacity=50;" parent="159" vertex="1">
                    <mxGeometry width="30" height="30" as="geometry">
                        <mxRectangle width="30" height="30" as="alternateBounds"/>
                    </mxGeometry>
                </mxCell>
                <mxCell id="161" value="RECEIVINGORDERLINE_ID" style="shape=partialRectangle;connectable=0;fillColor=#242424;top=0;left=0;bottom=0;right=0;align=left;spacingLeft=6;fontStyle=5;overflow=hidden;shadow=1;opacity=50;" parent="159" vertex="1">
                    <mxGeometry x="30" width="291" height="30" as="geometry">
                        <mxRectangle width="291" height="30" as="alternateBounds"/>
                    </mxGeometry>
                </mxCell>
                <mxCell id="156" style="shape=partialRectangle;collapsible=0;dropTarget=0;pointerEvents=0;fillColor=#242424;top=0;left=0;bottom=1;right=0;points=[[0,0.5],[1,0.5]];portConstraint=eastwest;shadow=1;opacity=50;" parent="110" vertex="1">
                    <mxGeometry y="90" width="321" height="30" as="geometry"/>
                </mxCell>
                <mxCell id="157" value="FK" style="shape=partialRectangle;connectable=0;fillColor=#242424;top=0;left=0;bottom=0;right=0;fontStyle=1;overflow=hidden;shadow=1;opacity=50;" parent="156" vertex="1">
                    <mxGeometry width="30" height="30" as="geometry">
                        <mxRectangle width="30" height="30" as="alternateBounds"/>
                    </mxGeometry>
                </mxCell>
                <mxCell id="158" value="WMSORDER_ID" style="shape=partialRectangle;connectable=0;fillColor=#242424;top=0;left=0;bottom=0;right=0;align=left;spacingLeft=6;fontStyle=5;overflow=hidden;shadow=1;opacity=50;" parent="156" vertex="1">
                    <mxGeometry x="30" width="291" height="30" as="geometry">
                        <mxRectangle width="291" height="30" as="alternateBounds"/>
                    </mxGeometry>
                </mxCell>
                <mxCell id="153" style="shape=partialRectangle;collapsible=0;dropTarget=0;pointerEvents=0;fillColor=#242424;top=0;left=0;bottom=1;right=0;points=[[0,0.5],[1,0.5]];portConstraint=eastwest;shadow=1;opacity=50;" parent="110" vertex="1">
                    <mxGeometry y="120" width="321" height="30" as="geometry"/>
                </mxCell>
                <mxCell id="154" value="FK" style="shape=partialRectangle;connectable=0;fillColor=#242424;top=0;left=0;bottom=0;right=0;fontStyle=1;overflow=hidden;shadow=1;opacity=50;" parent="153" vertex="1">
                    <mxGeometry width="30" height="30" as="geometry">
                        <mxRectangle width="30" height="30" as="alternateBounds"/>
                    </mxGeometry>
                </mxCell>
                <mxCell id="155" value="material_ID" style="shape=partialRectangle;connectable=0;fillColor=#242424;top=0;left=0;bottom=0;right=0;align=left;spacingLeft=6;fontStyle=5;overflow=hidden;shadow=1;opacity=50;" parent="153" vertex="1">
                    <mxGeometry x="30" width="291" height="30" as="geometry">
                        <mxRectangle width="291" height="30" as="alternateBounds"/>
                    </mxGeometry>
                </mxCell>
                <mxCell id="114" value="" style="shape=partialRectangle;collapsible=0;dropTarget=0;pointerEvents=0;fillColor=#242424;top=0;left=0;bottom=0;right=0;points=[[0,0.5],[1,0.5]];portConstraint=eastwest;shadow=1;opacity=50;" parent="110" vertex="1">
                    <mxGeometry y="150" width="321" height="30" as="geometry"/>
                </mxCell>
                <mxCell id="115" value="" style="shape=partialRectangle;connectable=0;fillColor=#242424;top=0;left=0;bottom=0;right=0;editable=1;overflow=hidden;shadow=1;opacity=50;" parent="114" vertex="1">
                    <mxGeometry width="30" height="30" as="geometry">
                        <mxRectangle width="30" height="30" as="alternateBounds"/>
                    </mxGeometry>
                </mxCell>
                <mxCell id="116" value="picked ammount" style="shape=partialRectangle;connectable=0;fillColor=#242424;top=0;left=0;bottom=0;right=0;align=left;spacingLeft=6;overflow=hidden;shadow=1;opacity=50;" parent="114" vertex="1">
                    <mxGeometry x="30" width="291" height="30" as="geometry">
                        <mxRectangle width="291" height="30" as="alternateBounds"/>
                    </mxGeometry>
                </mxCell>
                <mxCell id="117" value="" style="shape=partialRectangle;collapsible=0;dropTarget=0;pointerEvents=0;fillColor=#242424;top=0;left=0;bottom=0;right=0;points=[[0,0.5],[1,0.5]];portConstraint=eastwest;shadow=1;opacity=50;" parent="110" vertex="1">
                    <mxGeometry y="180" width="321" height="30" as="geometry"/>
                </mxCell>
                <mxCell id="118" value="" style="shape=partialRectangle;connectable=0;fillColor=#242424;top=0;left=0;bottom=0;right=0;editable=1;overflow=hidden;shadow=1;opacity=50;" parent="117" vertex="1">
                    <mxGeometry width="30" height="30" as="geometry">
                        <mxRectangle width="30" height="30" as="alternateBounds"/>
                    </mxGeometry>
                </mxCell>
                <mxCell id="119" value="planned ammount" style="shape=partialRectangle;connectable=0;fillColor=#242424;top=0;left=0;bottom=0;right=0;align=left;spacingLeft=6;overflow=hidden;shadow=1;opacity=50;" parent="117" vertex="1">
                    <mxGeometry x="30" width="291" height="30" as="geometry">
                        <mxRectangle width="291" height="30" as="alternateBounds"/>
                    </mxGeometry>
                </mxCell>
                <mxCell id="120" value="" style="shape=partialRectangle;collapsible=0;dropTarget=0;pointerEvents=0;fillColor=#242424;top=0;left=0;bottom=0;right=0;points=[[0,0.5],[1,0.5]];portConstraint=eastwest;shadow=1;opacity=50;" parent="110" vertex="1">
                    <mxGeometry y="210" width="321" height="30" as="geometry"/>
                </mxCell>
                <mxCell id="121" value="" style="shape=partialRectangle;connectable=0;fillColor=#242424;top=0;left=0;bottom=0;right=0;editable=1;overflow=hidden;shadow=1;opacity=50;" parent="120" vertex="1">
                    <mxGeometry width="30" height="30" as="geometry">
                        <mxRectangle width="30" height="30" as="alternateBounds"/>
                    </mxGeometry>
                </mxCell>
                <mxCell id="122" value="checkedquantity" style="shape=partialRectangle;connectable=0;fillColor=#242424;top=0;left=0;bottom=0;right=0;align=left;spacingLeft=6;overflow=hidden;shadow=1;opacity=50;" parent="120" vertex="1">
                    <mxGeometry x="30" width="291" height="30" as="geometry">
                        <mxRectangle width="291" height="30" as="alternateBounds"/>
                    </mxGeometry>
                </mxCell>
                <mxCell id="203" style="shape=partialRectangle;collapsible=0;dropTarget=0;pointerEvents=0;fillColor=#242424;top=0;left=0;bottom=0;right=0;points=[[0,0.5],[1,0.5]];portConstraint=eastwest;shadow=1;opacity=50;" parent="110" vertex="1">
                    <mxGeometry y="240" width="321" height="30" as="geometry"/>
                </mxCell>
                <mxCell id="204" style="shape=partialRectangle;connectable=0;fillColor=#242424;top=0;left=0;bottom=0;right=0;editable=1;overflow=hidden;shadow=1;opacity=50;" parent="203" vertex="1">
                    <mxGeometry width="30" height="30" as="geometry">
                        <mxRectangle width="30" height="30" as="alternateBounds"/>
                    </mxGeometry>
                </mxCell>
                <mxCell id="205" value="amount" style="shape=partialRectangle;connectable=0;fillColor=#242424;top=0;left=0;bottom=0;right=0;align=left;spacingLeft=6;overflow=hidden;shadow=1;opacity=50;" parent="203" vertex="1">
                    <mxGeometry x="30" width="291" height="30" as="geometry">
                        <mxRectangle width="291" height="30" as="alternateBounds"/>
                    </mxGeometry>
                </mxCell>
                <mxCell id="200" style="shape=partialRectangle;collapsible=0;dropTarget=0;pointerEvents=0;fillColor=#242424;top=0;left=0;bottom=0;right=0;points=[[0,0.5],[1,0.5]];portConstraint=eastwest;shadow=1;opacity=50;" parent="110" vertex="1">
                    <mxGeometry y="270" width="321" height="30" as="geometry"/>
                </mxCell>
                <mxCell id="201" style="shape=partialRectangle;connectable=0;fillColor=#242424;top=0;left=0;bottom=0;right=0;editable=1;overflow=hidden;shadow=1;opacity=50;" parent="200" vertex="1">
                    <mxGeometry width="30" height="30" as="geometry">
                        <mxRectangle width="30" height="30" as="alternateBounds"/>
                    </mxGeometry>
                </mxCell>
                <mxCell id="202" value="linenumber" style="shape=partialRectangle;connectable=0;fillColor=#242424;top=0;left=0;bottom=0;right=0;align=left;spacingLeft=6;overflow=hidden;shadow=1;opacity=50;" parent="200" vertex="1">
                    <mxGeometry x="30" width="291" height="30" as="geometry">
                        <mxRectangle width="291" height="30" as="alternateBounds"/>
                    </mxGeometry>
                </mxCell>
                <mxCell id="197" style="shape=partialRectangle;collapsible=0;dropTarget=0;pointerEvents=0;fillColor=#242424;top=0;left=0;bottom=0;right=0;points=[[0,0.5],[1,0.5]];portConstraint=eastwest;shadow=1;opacity=50;" parent="110" vertex="1">
                    <mxGeometry y="300" width="321" height="30" as="geometry"/>
                </mxCell>
                <mxCell id="198" style="shape=partialRectangle;connectable=0;fillColor=#242424;top=0;left=0;bottom=0;right=0;editable=1;overflow=hidden;shadow=1;opacity=50;" parent="197" vertex="1">
                    <mxGeometry width="30" height="30" as="geometry">
                        <mxRectangle width="30" height="30" as="alternateBounds"/>
                    </mxGeometry>
                </mxCell>
                <mxCell id="199" value="status" style="shape=partialRectangle;connectable=0;fillColor=#242424;top=0;left=0;bottom=0;right=0;align=left;spacingLeft=6;overflow=hidden;shadow=1;opacity=50;" parent="197" vertex="1">
                    <mxGeometry x="30" width="291" height="30" as="geometry">
                        <mxRectangle width="291" height="30" as="alternateBounds"/>
                    </mxGeometry>
                </mxCell>
                <mxCell id="140" value="Material" style="shape=table;startSize=30;container=1;collapsible=1;childLayout=tableLayout;fixedRows=1;rowLines=0;fontStyle=1;align=center;resizeLast=1;shadow=1;fillColor=#242424;opacity=50;" parent="1" vertex="1">
                    <mxGeometry x="1640" y="566" width="196" height="155" as="geometry"/>
                </mxCell>
                <mxCell id="141" value="" style="shape=partialRectangle;collapsible=0;dropTarget=0;pointerEvents=0;fillColor=#242424;top=0;left=0;bottom=1;right=0;points=[[0,0.5],[1,0.5]];portConstraint=eastwest;shadow=1;opacity=50;" parent="140" vertex="1">
                    <mxGeometry y="30" width="196" height="30" as="geometry"/>
                </mxCell>
                <mxCell id="142" value="PK" style="shape=partialRectangle;connectable=0;fillColor=#242424;top=0;left=0;bottom=0;right=0;fontStyle=1;overflow=hidden;shadow=1;opacity=50;" parent="141" vertex="1">
                    <mxGeometry width="30" height="30" as="geometry">
                        <mxRectangle width="30" height="30" as="alternateBounds"/>
                    </mxGeometry>
                </mxCell>
                <mxCell id="143" value="ID" style="shape=partialRectangle;connectable=0;fillColor=#242424;top=0;left=0;bottom=0;right=0;align=left;spacingLeft=6;fontStyle=5;overflow=hidden;shadow=1;opacity=50;" parent="141" vertex="1">
                    <mxGeometry x="30" width="166" height="30" as="geometry">
                        <mxRectangle width="166" height="30" as="alternateBounds"/>
                    </mxGeometry>
                </mxCell>
                <mxCell id="144" value="" style="shape=partialRectangle;collapsible=0;dropTarget=0;pointerEvents=0;fillColor=#242424;top=0;left=0;bottom=0;right=0;points=[[0,0.5],[1,0.5]];portConstraint=eastwest;shadow=1;opacity=50;" parent="140" vertex="1">
                    <mxGeometry y="60" width="196" height="30" as="geometry"/>
                </mxCell>
                <mxCell id="145" value="" style="shape=partialRectangle;connectable=0;fillColor=#242424;top=0;left=0;bottom=0;right=0;editable=1;overflow=hidden;shadow=1;opacity=50;" parent="144" vertex="1">
                    <mxGeometry width="30" height="30" as="geometry">
                        <mxRectangle width="30" height="30" as="alternateBounds"/>
                    </mxGeometry>
                </mxCell>
                <mxCell id="146" value="Row 1" style="shape=partialRectangle;connectable=0;fillColor=#242424;top=0;left=0;bottom=0;right=0;align=left;spacingLeft=6;overflow=hidden;shadow=1;opacity=50;" parent="144" vertex="1">
                    <mxGeometry x="30" width="166" height="30" as="geometry">
                        <mxRectangle width="166" height="30" as="alternateBounds"/>
                    </mxGeometry>
                </mxCell>
                <mxCell id="147" value="" style="shape=partialRectangle;collapsible=0;dropTarget=0;pointerEvents=0;fillColor=#242424;top=0;left=0;bottom=0;right=0;points=[[0,0.5],[1,0.5]];portConstraint=eastwest;shadow=1;opacity=50;" parent="140" vertex="1">
                    <mxGeometry y="90" width="196" height="30" as="geometry"/>
                </mxCell>
                <mxCell id="148" value="" style="shape=partialRectangle;connectable=0;fillColor=#242424;top=0;left=0;bottom=0;right=0;editable=1;overflow=hidden;shadow=1;opacity=50;" parent="147" vertex="1">
                    <mxGeometry width="30" height="30" as="geometry">
                        <mxRectangle width="30" height="30" as="alternateBounds"/>
                    </mxGeometry>
                </mxCell>
                <mxCell id="149" value="Row 2" style="shape=partialRectangle;connectable=0;fillColor=#242424;top=0;left=0;bottom=0;right=0;align=left;spacingLeft=6;overflow=hidden;shadow=1;opacity=50;" parent="147" vertex="1">
                    <mxGeometry x="30" width="166" height="30" as="geometry">
                        <mxRectangle width="166" height="30" as="alternateBounds"/>
                    </mxGeometry>
                </mxCell>
                <mxCell id="150" value="" style="shape=partialRectangle;collapsible=0;dropTarget=0;pointerEvents=0;fillColor=#242424;top=0;left=0;bottom=0;right=0;points=[[0,0.5],[1,0.5]];portConstraint=eastwest;shadow=1;opacity=50;" parent="140" vertex="1">
                    <mxGeometry y="120" width="196" height="30" as="geometry"/>
                </mxCell>
                <mxCell id="151" value="" style="shape=partialRectangle;connectable=0;fillColor=#242424;top=0;left=0;bottom=0;right=0;editable=1;overflow=hidden;shadow=1;opacity=50;" parent="150" vertex="1">
                    <mxGeometry width="30" height="30" as="geometry">
                        <mxRectangle width="30" height="30" as="alternateBounds"/>
                    </mxGeometry>
                </mxCell>
                <mxCell id="152" value="Row 3" style="shape=partialRectangle;connectable=0;fillColor=#242424;top=0;left=0;bottom=0;right=0;align=left;spacingLeft=6;overflow=hidden;shadow=1;opacity=50;" parent="150" vertex="1">
                    <mxGeometry x="30" width="166" height="30" as="geometry">
                        <mxRectangle width="166" height="30" as="alternateBounds"/>
                    </mxGeometry>
                </mxCell>
                <mxCell id="162" style="edgeStyle=none;html=1;exitX=1;exitY=0.5;exitDx=0;exitDy=0;entryX=0;entryY=0.5;entryDx=0;entryDy=0;startArrow=ERmany;startFill=0;endSize=19;startSize=19;endArrow=ERone;endFill=0;" parent="1" source="153" target="141" edge="1">
                    <mxGeometry relative="1" as="geometry">
                        <Array as="points">
                            <mxPoint x="1515" y="869"/>
                            <mxPoint x="1615" y="611"/>
                        </Array>
                    </mxGeometry>
                </mxCell>
                <mxCell id="166" style="edgeStyle=none;html=1;exitX=1;exitY=0.5;exitDx=0;exitDy=0;entryX=0;entryY=0.25;entryDx=0;entryDy=0;startArrow=ERmany;startFill=0;endArrow=ERone;endFill=0;startSize=19;endSize=19;" parent="1" source="163" target="140" edge="1">
                    <mxGeometry relative="1" as="geometry">
                        <Array as="points">
                            <mxPoint x="1563" y="468"/>
                            <mxPoint x="1610" y="605"/>
                        </Array>
                    </mxGeometry>
                </mxCell>
                <mxCell id="218" style="edgeStyle=none;html=1;exitX=0;exitY=0.5;exitDx=0;exitDy=0;entryX=0;entryY=0.5;entryDx=0;entryDy=0;startArrow=ERmany;startFill=0;endArrow=ERone;endFill=0;startSize=19;endSize=19;" parent="1" source="100" target="63" edge="1">
                    <mxGeometry relative="1" as="geometry">
                        <Array as="points">
                            <mxPoint x="700" y="868"/>
                            <mxPoint x="700" y="436"/>
                        </Array>
                    </mxGeometry>
                </mxCell>
            </root>
        </mxGraphModel>
    </diagram>
</mxfile>